HIERARCHY
ROOT Hips
{
	OFFSET 0.000000 0.000000 0.000000
	CHANNELS 6 Xposition Yposition Zposition Zrotation Yrotation Xrotation 
	JOINT LowerBack
	{
		OFFSET 0.000000 0.000000 0.000000
		CHANNELS 3 Zrotation Yrotation Xrotation
		JOINT Spine
		{
			OFFSET 0.028270 2.035590 -0.193380
			CHANNELS 3 Zrotation Yrotation Xrotation
			JOINT Spine1
			{
				OFFSET 0.056720 2.048850 -0.042750
				CHANNELS 3 Zrotation Yrotation Xrotation
				JOINT Neck
				{
					OFFSET 0.000000 0.000000 0.000000
					CHANNELS 3 Zrotation Yrotation Xrotation
					JOINT Neck1
					{
						OFFSET -0.054170 1.746240 0.172020
						CHANNELS 3 Zrotation Yrotation Xrotation
						JOINT Head
						{
							OFFSET 0.104070 1.761360 -0.123970
							CHANNELS 3 Zrotation Yrotation Xrotation
							End Site
							{
								OFFSET 0.000000 0.000000 0.000000
							}
						}
					}
				}
				JOINT LeftShoulder
				{
					OFFSET 0.000000 0.000000 0.000000
					CHANNELS 3 Zrotation Yrotation Xrotation
					JOINT LeftArm
					{
						OFFSET 3.362410 1.200890 -0.311210
						CHANNELS 3 Zrotation Yrotation Xrotation
						JOINT LeftForeArm
						{
							OFFSET 4.983000 -0.000000 -0.000000
							CHANNELS 3 Zrotation Yrotation Xrotation
							JOINT LeftHand
							{
								OFFSET 3.483560 -0.000000 -0.000000
								CHANNELS 3 Zrotation Yrotation Xrotation
								JOINT LeftFingerBase
								{
									OFFSET 0.000000 0.000000 0.000000
									CHANNELS 3 Zrotation Yrotation Xrotation
									JOINT LeftHandIndex1
									{
										OFFSET 0.715260 -0.000000 -0.000000
										CHANNELS 3 Zrotation Yrotation Xrotation
										End Site
										{
											OFFSET 0.000000 0.000000 0.000000
										}
									}
								}
								JOINT LThumb
								{
									OFFSET 0.000000 0.000000 0.000000
									CHANNELS 3 Zrotation Yrotation Xrotation
									End Site
									{
										OFFSET 0.000000 0.000000 0.000000
									}
								}
							}
						}
					}
				}
				JOINT RightShoulder
				{
					OFFSET 0.000000 0.000000 0.000000
					CHANNELS 3 Zrotation Yrotation Xrotation
					JOINT RightArm
					{
						OFFSET -3.136600 1.374050 -0.404650
						CHANNELS 3 Zrotation Yrotation Xrotation
						JOINT RightForeArm
						{
							OFFSET -5.241900 -0.000000 -0.000000
							CHANNELS 3 Zrotation Yrotation Xrotation
							JOINT RightHand
							{
								OFFSET -3.444170 -0.000000 -0.000000
								CHANNELS 3 Zrotation Yrotation Xrotation
								JOINT RightFingerBase
								{
									OFFSET 0.000000 0.000000 0.000000
									CHANNELS 3 Zrotation Yrotation Xrotation
									JOINT RightHandIndex1
									{
										OFFSET -0.622530 -0.000000 -0.000000
										CHANNELS 3 Zrotation Yrotation Xrotation
										End Site
										{
											OFFSET 0.000000 0.000000 0.000000
										}
									}
								}
								JOINT RThumb
								{
									OFFSET 0.000000 0.000000 0.000000
									CHANNELS 3 Zrotation Yrotation Xrotation
									End Site
									{
										OFFSET 0.000000 0.000000 0.000000
									}
								}
							}
						}
					}
				}
			}
		}
	}
}
}
MOTION
Frames: 11
Frame Time: 0.008333
2.860613 17.143115 -1.235333 125.142611 -77.858368 -125.196203 -8.729410 -0.462186 5.229965 -2.424534 0.067630 -2.409064 -6.623233 -0.007764 -1.193453 9.517973 -3.123560 -4.704314 -4.102159 -0.331237 0.602045 0.000000 0.000000 0.000000 -5.966256 4.898574 1.861970 -73.742174 6.836455 7.391354 -3.166982 -22.325787 0.003101 2.326845 -2.979562 -0.060569 -0.030835 -0.030529 -0.000000 0.000000 0.000000 0.000000 0.000000 0.000000 0.000000 17.663555 0.675842 0.997630 75.997471 12.765319 5.063708 3.161795 17.813525 0.014593 2.316461 9.478938 0.191191 0.050517 -0.128196 0.000000 0.000000 0.000000 0.000000 0.000000 0.000000 0.000000 
2.861582 17.130190 -1.237744 124.183412 -78.153356 -124.495051 -8.617881 -0.603152 5.382644 -2.404399 -0.074722 -2.367436 -6.658297 -0.145919 -1.189654 9.634966 -3.296167 -4.720119 -4.134325 -0.333251 0.597824 0.000000 0.000000 0.000000 -5.888070 4.733764 1.868387 -73.856320 7.006942 7.322066 -3.155969 -22.381094 0.003120 2.353042 -3.035377 -0.062370 -0.030240 -0.030744 -0.000000 0.000000 0.000000 0.000000 0.000000 0.000000 0.000000 17.948340 0.411441 0.982427 75.968524 12.827078 5.023325 3.158292 17.847534 0.014594 2.372589 9.556044 0.197490 0.049455 -0.127888 0.000000 0.000000 0.000000 0.000000 0.000000 0.000000 0.000000 
2.862844 17.119631 -1.242480 122.667640 -78.489807 -123.281672 -8.545982 -0.754976 5.585017 -2.394986 -0.226759 -2.316234 -6.696931 -0.292907 -1.198303 9.769059 -3.493374 -4.721607 -4.166474 -0.335410 0.597054 0.000000 0.000000 0.000000 -5.757439 4.450548 1.878484 -73.944893 7.182796 7.360506 -3.149100 -22.399548 0.003145 2.368525 -3.093684 -0.063971 -0.029758 -0.031051 -0.000000 0.000000 0.000000 0.000000 0.000000 0.000000 0.000000 18.246236 0.107493 0.969140 75.960143 12.841868 4.855384 3.141199 17.900049 0.014481 2.299899 9.727327 0.194791 0.048778 -0.128310 0.000000 0.000000 0.000000 0.000000 0.000000 0.000000 0.000000 
2.864037 17.112022 -1.249174 120.675347 -78.864040 -121.597377 -8.489636 -0.912577 5.801541 -2.390919 -0.384591 -2.262538 -6.736986 -0.445384 -1.215056 9.909123 -3.705428 -4.709966 -4.196390 -0.337580 0.599962 0.000000 0.000000 0.000000 -5.588593 4.076820 1.890217 -74.004382 7.344214 7.507687 -3.146755 -22.368813 0.003169 2.368624 -3.146307 -0.065070 -0.029462 -0.031373 -0.000000 0.000000 0.000000 0.000000 0.000000 0.000000 0.000000 18.533965 -0.223345 0.955125 75.979032 12.799009 4.570350 3.112519 17.969476 0.014259 2.102570 9.983124 0.182493 0.048563 -0.129323 0.000000 0.000000 0.000000 0.000000 0.000000 0.000000 0.000000 
2.864784 17.107652 -1.257317 118.328543 -79.259421 -119.532963 -8.431400 -1.068415 6.001066 -2.388069 -0.541543 -2.212616 -6.776083 -0.597183 -1.235507 10.044190 -3.926168 -4.688182 -4.221903 -0.339611 0.606205 0.000000 0.000000 0.000000 -5.397834 3.643089 1.900862 -74.032511 7.477578 7.754023 -3.148873 -22.287670 0.003189 2.347496 -3.183007 -0.065269 -0.029391 -0.031673 -0.000000 0.000000 0.000000 0.000000 0.000000 0.000000 0.000000 18.790213 -0.569712 0.939024 76.028853 12.694353 4.195537 3.075033 18.051559 0.013937 1.791568 10.305821 0.159896 0.048873 -0.130745 0.000000 0.000000 0.000000 0.000000 0.000000 0.000000 0.000000 
2.864711 17.106585 -1.266280 115.805025 -79.648811 -117.247012 -8.362310 -1.213239 6.160685 -2.383773 -0.688819 -2.171572 -6.811342 -0.739990 -1.257141 10.162877 -4.135252 -4.657492 -4.240854 -0.341348 0.615693 0.000000 0.000000 0.000000 -5.200482 3.191113 1.909147 -74.028116 7.565375 8.092296 -3.155580 -22.154230 0.003194 2.299883 -3.195622 -0.064166 -0.029605 -0.031889 -0.000000 0.000000 0.000000 0.000000 0.000000 0.000000 0.000000 18.991908 -0.902202 0.919666 76.114802 12.512461 3.728386 3.031692 18.150580 0.013529 1.397878 10.666807 0.128198 0.049589 -0.132384 0.000000 0.000000 0.000000 0.000000 0.000000 0.000000 0.000000 
2.863755 17.108552 -1.275522 113.293899 -80.003460 -114.923380 -8.284417 -1.338148 6.272068 -2.377691 -0.817402 -2.140700 -6.840269 -0.864915 -1.275236 10.258279 -4.339537 -4.625553 -4.251921 -0.342630 0.626410 0.000000 0.000000 0.000000 -5.010791 2.751007 1.912198 -73.991145 7.597313 8.499719 -3.166395 -21.980289 0.003177 2.219991 -3.175456 -0.061563 -0.030096 -0.032023 -0.000000 0.000000 0.000000 0.000000 0.000000 0.000000 0.000000 19.130028 -1.220486 0.898287 76.231387 12.271775 3.235154 2.985901 18.257029 0.013057 0.938962 11.038673 0.087601 0.050773 -0.134051 0.000000 0.000000 0.000000 0.000000 0.000000 0.000000 0.000000 
2.861582 17.113158 -1.284443 111.036500 -80.297499 -112.803272 -8.203097 -1.435556 6.331435 -2.369826 -0.919368 -2.121281 -6.860092 -0.964248 -1.289056 10.322270 -4.513841 -4.593327 -4.253820 -0.343333 0.637948 0.000000 0.000000 0.000000 -4.839459 2.365831 1.910723 -73.923354 7.557109 8.963695 -3.181416 -21.768991 0.003137 2.106070 -3.119732 -0.057459 -0.030915 -0.032001 -0.000000 0.000000 0.000000 0.000000 0.000000 0.000000 0.000000 19.189372 -1.489368 0.874859 76.379628 11.958106 2.704492 2.940605 18.377568 0.012556 0.460584 11.387770 0.041903 0.052185 -0.135594 0.000000 0.000000 0.000000 0.000000 0.000000 0.000000 0.000000 
2.858135 17.119771 -1.292482 109.247814 -80.515714 -111.110127 -8.124760 -1.500471 6.343397 -2.360659 -0.989186 -2.112092 -6.868994 -1.032389 -1.296335 10.351161 -4.658398 -4.566210 -4.246309 -0.343372 0.648671 0.000000 0.000000 0.000000 -4.696326 2.061122 1.904007 -73.827404 7.440089 9.458200 -3.199986 -21.535306 0.003070 1.958237 -3.027643 -0.051854 -0.032043 -0.031814 -0.000000 0.000000 0.000000 0.000000 0.000000 0.000000 0.000000 19.168357 -1.703052 0.850834 76.550438 11.585276 2.180789 2.898944 18.507158 0.012059 -0.007714 11.686824 -0.005596 0.053770 -0.136882 0.000000 0.000000 0.000000 0.000000 0.000000 0.000000 0.000000 
2.853294 17.127709 -1.299131 108.099744 -80.653600 -110.025380 -8.052572 -1.531104 6.314534 -2.350195 -1.024606 -2.111654 -6.865853 -1.067010 -1.296334 10.342638 -4.762560 -4.546875 -4.229655 -0.342712 0.657603 0.000000 0.000000 0.000000 -4.587030 1.863486 1.893117 -73.706533 7.237639 9.966382 -3.221650 -21.287282 0.002977 1.781689 -2.904330 -0.045347 -0.033486 -0.031403 -0.000000 0.000000 0.000000 0.000000 0.000000 0.000000 0.000000 19.066951 -1.845864 0.826627 76.736664 11.154235 1.672291 2.863430 18.649377 0.011602 -0.427209 11.910229 -0.050195 0.055352 -0.137821 0.000000 0.000000 0.000000 0.000000 0.000000 0.000000 0.000000 
2.846852 17.136381 -1.304032 107.679265 -80.715115 -109.640910 -7.986710 -1.527944 6.249063 -2.338482 -1.025799 -2.118466 -6.851666 -1.068100 -1.287952 10.300385 -4.863878 -4.541997 -4.205543 -0.341441 0.663067 0.000000 0.000000 0.000000 -4.520891 1.743473 1.875204 -73.564840 6.998191 10.412183 -3.244289 -21.075332 0.002852 1.579126 -2.751984 -0.038141 -0.035042 -0.030960 -0.000000 0.000000 0.000000 0.000000 0.000000 0.000000 0.000000 18.903749 -1.959111 0.806883 76.916007 10.714627 1.302262 2.837092 18.773601 0.011231 -0.805516 12.052365 -0.091395 0.057218 -0.138328 0.000000 0.000000 0.000000 0.000000 0.000000 0.000000 0.000000 
